<svg width="51" height="50" viewBox="0 0 51 50" fill="none" xmlns="http://www.w3.org/2000/svg">
<rect width="50" height="50" rx="25" fill="#34B0BE"/>
<path d="M15.2695 12.8184C16.1484 12.9355 16.8906 12.9941 17.4961 12.9941C17.8281 12.9941 18.1309 12.9844 18.4043 12.9648C18.6777 12.9453 19.0195 12.916 19.4297 12.877C19.7812 12.8379 20.2207 12.7988 20.748 12.7598C21.2754 12.7207 21.8906 12.6523 22.5938 12.5547C22.3398 12.75 22.1445 12.9746 22.0078 13.2285C21.8711 13.4824 21.7637 13.7266 21.6855 13.9609C21.6074 14.2344 21.5488 14.5176 21.5098 14.8105C21.4902 14.9863 21.4805 15.3477 21.4805 15.8945C21.5 16.4414 21.5098 17.1055 21.5098 17.8867C21.5293 18.668 21.5293 19.5371 21.5098 20.4941C21.5098 21.4512 21.4902 22.4277 21.4512 23.4238C21.4121 24.4004 21.3535 25.377 21.2754 26.3535C21.1973 27.3105 21.0801 28.1992 20.9238 29.0195C20.7871 29.8203 20.6016 30.5234 20.3672 31.1289C20.1523 31.7148 19.8887 32.125 19.5762 32.3594C18.9316 32.8477 18.2285 33.248 17.4668 33.5605C16.7051 33.8535 15.9531 34.0488 15.2109 34.1465C14.4688 34.2441 13.7656 34.2441 13.1016 34.1465C12.457 34.0684 11.9102 33.873 11.4609 33.5605C11.168 33.3457 10.8945 33.043 10.6406 32.6523C10.3867 32.2617 10.1523 31.832 9.9375 31.3633C9.74219 30.875 9.55664 30.377 9.38086 29.8691C9.22461 29.3418 9.08789 28.8633 8.9707 28.4336C8.83398 27.9844 8.72656 27.5938 8.64844 27.2617C8.55078 26.9102 8.48242 26.6758 8.44336 26.5586C8.36523 26.3828 8.23828 26.207 8.0625 26.0312C7.88672 25.8555 7.70117 25.6992 7.50586 25.5625C7.31055 25.4258 7.14453 25.3281 7.00781 25.2695C6.85156 25.1914 6.76367 25.1719 6.74414 25.2109C6.74414 25.25 6.90039 25.2598 7.21289 25.2402C7.50586 25.2012 7.86719 25.1621 8.29688 25.123C8.72656 25.084 9.17578 25.0547 9.64453 25.0352C10.1133 24.9961 10.5039 24.9863 10.8164 25.0059C11.0703 25.0059 11.4023 25.0156 11.8125 25.0352C12.1641 25.0547 12.6133 25.0742 13.1602 25.0938C13.707 25.0938 14.3809 25.1133 15.1816 25.1523C14.6738 25.3086 14.2637 25.4844 13.9512 25.6797C13.6582 25.8555 13.4336 26.0215 13.2773 26.1777C13.082 26.373 12.9453 26.5684 12.8672 26.7637C12.8086 26.9395 12.7598 27.3008 12.7207 27.8477C12.7012 28.375 12.7402 28.9219 12.8379 29.4883C12.9355 30.0547 13.1211 30.5723 13.3945 31.041C13.668 31.5098 14.0977 31.7734 14.6836 31.832C15.3086 31.8906 15.8164 31.7832 16.207 31.5098C16.6172 31.2168 16.9395 30.8262 17.1738 30.3379C17.4082 29.8496 17.584 29.3027 17.7012 28.6973C17.8184 28.0918 17.916 27.4961 17.9941 26.9102C18.0527 26.5195 18.0723 25.9727 18.0527 25.2695C18.0332 24.5664 17.9844 23.8047 17.9062 22.9844C17.8281 22.1641 17.7305 21.3145 17.6133 20.4355C17.5156 19.5566 17.418 18.7461 17.3203 18.0039C17.2227 17.2617 17.125 16.627 17.0273 16.0996C16.9492 15.5723 16.9004 15.2402 16.8809 15.1035C16.8027 14.8496 16.6953 14.5859 16.5586 14.3125C16.4414 14.0977 16.2754 13.8535 16.0605 13.5801C15.8652 13.3066 15.6016 13.0527 15.2695 12.8184ZM31.9102 12.3496C32.5938 12.3496 33.209 12.4668 33.7559 12.7012C34.3223 12.916 34.8398 13.1602 35.3086 13.4336C35.7969 13.707 36.2559 13.9609 36.6855 14.1953C37.1152 14.4102 37.5547 14.5176 38.0039 14.5176C38.3555 14.498 38.7559 14.4492 39.2051 14.3711C39.5957 14.293 40.0449 14.1758 40.5527 14.0195C41.0801 13.8438 41.666 13.5898 42.3105 13.2578C41.666 13.8828 41.1387 14.4102 40.7285 14.8398C40.3379 15.25 40.0352 15.5918 39.8203 15.8652C39.5664 16.1777 39.3809 16.4219 39.2637 16.5977C39.1465 16.8125 38.9707 17.1348 38.7363 17.5645C38.5215 17.9551 38.2285 18.4824 37.8574 19.1465C37.4863 19.791 37.0176 20.6406 36.4512 21.6953C36.4512 20.3477 36.3145 19.3027 36.041 18.5605C35.7871 17.8184 35.5039 17.252 35.1914 16.8613C34.8203 16.4121 34.4004 16.1289 33.9316 16.0117C33.502 15.9531 33.0723 16.0312 32.6426 16.2461C32.2129 16.4414 31.7832 16.7344 31.3535 17.125C30.9434 17.5156 30.543 17.9844 30.1523 18.5312C29.7812 19.0586 29.4395 19.6152 29.127 20.2012C28.834 20.7871 28.5898 21.3828 28.3945 21.9883C28.1992 22.5742 28.0723 23.1211 28.0137 23.6289C27.9551 24.0781 27.9453 24.6055 27.9844 25.2109C28.0234 25.7969 28.1113 26.4023 28.248 27.0273C28.3848 27.6328 28.5605 28.2285 28.7754 28.8145C28.9902 29.4004 29.2539 29.9277 29.5664 30.3965C29.8984 30.8457 30.2695 31.2168 30.6797 31.5098C31.0898 31.7832 31.5586 31.9102 32.0859 31.8906C32.6719 31.8516 33.248 31.6758 33.8145 31.3633C34.3027 31.1094 34.8008 30.7188 35.3086 30.1914C35.8164 29.6445 36.2559 28.873 36.627 27.877L40.9629 28.668C39.7129 30.1914 38.4922 31.334 37.3008 32.0957C36.1289 32.8574 35.0742 33.3945 34.1367 33.707C33.043 34.0586 32.0078 34.2246 31.0312 34.2051C29.8008 34.0684 28.6484 33.6973 27.5742 33.0918C26.5 32.4863 25.5723 31.7539 24.791 30.8945C24.0293 30.0156 23.4336 29.0586 23.0039 28.0234C22.5742 26.9883 22.3887 25.9727 22.4473 24.9766C22.4863 24.3125 22.623 23.541 22.8574 22.6621C23.0918 21.7637 23.4043 20.8457 23.7949 19.9082C24.2051 18.9707 24.6934 18.0527 25.2598 17.1543C25.8262 16.2559 26.4512 15.4551 27.1348 14.752C27.8184 14.0293 28.5605 13.4531 29.3613 13.0234C30.1816 12.5742 31.0312 12.3496 31.9102 12.3496Z" fill="black"/>
</svg>
