<?xml version="1.0" standalone="no"?>
<!DOCTYPE svg PUBLIC "-//W3C//DTD SVG 20010904//EN"
 "http://www.w3.org/TR/2001/REC-SVG-20010904/DTD/svg10.dtd">
<svg version="1.0" xmlns="http://www.w3.org/2000/svg"
 width="920.000000pt" height="823.000000pt" viewBox="0 0 920.000000 823.000000"
 preserveAspectRatio="xMidYMid meet">

<g transform="translate(0.000000,823.000000) scale(0.100000,-0.100000)"
fill="#000000" stroke="none">
<path d="M4915 7620 c-4 -6 -14 -9 -22 -6 -8 3 -23 1 -34 -5 -11 -5 -34 -12
-51 -14 -17 -2 -36 -11 -40 -20 -5 -8 -16 -15 -25 -15 -9 0 -31 -11 -50 -26
-18 -14 -38 -22 -43 -19 -6 3 -10 0 -10 -7 0 -8 -5 -19 -12 -26 -9 -9 -16 -8
-29 4 -12 11 -22 13 -36 6 -61 -32 -171 -82 -179 -82 -5 0 -21 -8 -34 -17 -14
-10 -32 -19 -40 -20 -8 -1 -22 -11 -32 -22 -9 -12 -21 -21 -27 -21 -6 0 -11
-4 -11 -10 0 -5 -6 -10 -13 -10 -7 0 -23 -18 -37 -40 -13 -21 -43 -52 -65 -68
-23 -16 -66 -66 -97 -113 -46 -68 -66 -113 -107 -238 -49 -148 -81 -299 -81
-380 0 -21 -7 -58 -15 -81 -21 -60 -20 -145 3 -168 23 -24 62 -102 64 -127 1
-11 0 -31 0 -45 -2 -24 -3 -24 -26 10 -13 19 -34 59 -46 88 -22 52 -63 92 -94
92 -20 0 -66 -39 -66 -56 0 -7 7 -19 15 -28 22 -21 32 -56 29 -96 -2 -19 -1
-41 2 -49 9 -26 34 10 34 49 0 23 5 40 14 43 26 10 50 -33 70 -124 3 -14 19
-41 35 -60 l30 -33 6 29 c11 50 13 52 14 8 1 -23 4 -49 7 -58 4 -10 2 -15 -6
-13 -20 4 -37 -61 -20 -72 19 -11 53 -181 40 -194 -15 -15 -12 -23 8 -28 13
-4 21 -24 31 -84 7 -43 17 -92 21 -109 16 -57 29 -190 27 -260 -2 -38 0 -79 4
-90 3 -11 9 -40 13 -64 3 -24 11 -50 17 -57 6 -7 8 -18 4 -23 -3 -6 3 -16 15
-23 11 -7 20 -20 20 -30 0 -9 4 -19 10 -23 5 -3 7 -12 3 -21 -5 -14 23 -48
157 -189 21 -22 40 -45 41 -52 2 -6 21 -31 42 -55 21 -24 56 -66 77 -95 48
-64 92 -79 255 -93 116 -10 231 4 302 36 17 8 36 14 41 14 19 0 98 38 115 55
9 9 17 22 17 28 -1 7 -9 2 -19 -10 -10 -12 -47 -31 -82 -43 -35 -12 -77 -27
-94 -34 -50 -23 -75 -28 -75 -17 0 6 -7 8 -15 5 -8 -4 -15 -1 -15 5 0 6 5 11
10 11 6 0 10 5 10 10 0 6 -9 10 -20 10 -11 0 -20 7 -20 15 0 11 7 14 24 9 21
-5 24 -3 19 14 -3 12 -12 24 -21 28 -13 5 -11 8 12 15 18 5 37 4 48 -2 17 -9
19 -8 16 7 -2 10 -14 21 -28 25 -15 5 -4 6 28 4 41 -3 54 0 59 12 4 9 -1 21
-10 28 -24 17 -21 25 8 25 16 0 25 -6 25 -15 0 -31 32 -14 47 25 15 36 22 42
70 56 43 12 59 23 77 52 13 20 34 46 46 57 12 11 26 29 32 40 5 11 15 31 23
45 19 32 19 70 1 70 -8 0 -17 8 -20 17 -5 12 -9 14 -18 5 -7 -7 -23 -12 -36
-12 -13 0 -21 -4 -17 -9 3 -6 -3 -14 -12 -20 -12 -7 -14 -13 -8 -18 6 -5 12
-19 12 -33 l1 -25 -15 23 c-8 12 -21 22 -29 22 -11 0 -10 -6 2 -35 18 -43 18
-49 -1 -42 -8 4 -17 2 -20 -4 -4 -5 -11 -7 -16 -4 -17 11 -46 -5 -58 -31 -6
-15 -15 -24 -18 -20 -4 3 -1 12 5 18 7 7 12 18 12 25 0 18 -49 16 -56 -2 -6
-14 -8 -13 -19 2 -10 14 -16 15 -27 5 -10 -8 -18 -8 -25 -1 -8 8 -15 5 -24 -9
-18 -24 -50 -24 -56 -1 -6 21 -35 33 -62 24 -15 -5 -20 1 -26 32 -6 33 -8 36
-19 21 -11 -15 -16 -16 -31 -4 -12 8 -16 21 -13 34 4 16 0 22 -18 26 -33 9
-64 41 -65 69 -1 34 -14 63 -23 49 -12 -19 -26 -14 -36 13 -5 14 -16 25 -24
25 -10 0 -13 -6 -10 -15 4 -10 0 -15 -14 -15 -12 0 -22 -9 -25 -21 -3 -12 -10
-18 -16 -14 -6 3 -8 11 -5 17 4 6 3 13 -2 17 -5 3 -14 15 -20 26 -6 11 -21 21
-33 23 -25 4 -27 15 -6 32 8 7 15 17 15 22 0 6 -6 6 -14 -1 -17 -14 -43 -5
-58 22 -10 20 -11 20 -24 2 -8 -10 -14 -13 -14 -7 0 7 -9 12 -19 12 -10 0 -22
7 -25 16 -4 10 -13 13 -25 9 -11 -3 -22 -1 -26 5 -3 5 -17 10 -30 10 -29 0
-40 16 -36 52 2 22 -3 29 -22 33 -25 7 -47 51 -47 95 0 13 -8 32 -17 43 -13
15 -15 21 -5 24 6 3 12 11 12 19 0 7 -6 11 -14 8 -21 -8 -24 11 -41 271 -3 44
-7 112 -10 150 -2 39 -9 101 -15 140 -12 74 -6 138 16 170 8 11 14 39 14 62 0
40 25 122 40 133 4 3 10 16 14 30 16 55 52 130 62 130 7 0 15 12 19 28 3 15
14 38 23 52 31 47 52 94 52 117 0 12 5 25 10 28 14 8 13 52 -2 61 -6 4 -17 -1
-25 -11 -12 -18 -13 -18 -13 1 0 21 34 64 51 64 5 0 7 10 4 23 -4 14 -1 28 8
35 12 10 13 22 5 57 -8 35 -6 56 8 97 19 60 63 127 82 128 6 0 12 4 12 8 0 18
87 65 128 70 23 2 42 9 42 14 0 14 252 -1 267 -16 3 -3 20 -6 38 -6 17 0 58
-7 90 -16 33 -9 69 -18 80 -19 20 -1 66 -22 75 -34 9 -12 59 -41 70 -41 6 0
15 10 20 23 5 12 9 16 9 10 1 -16 28 -17 33 -2 3 9 9 9 25 0 12 -6 37 -11 55
-11 52 0 123 -32 163 -74 84 -90 161 -238 205 -395 27 -94 30 -122 31 -251 0
-80 4 -154 9 -165 29 -72 24 331 -6 450 -10 39 -17 97 -16 130 3 79 -3 101
-30 109 -18 5 -20 8 -9 15 14 9 7 51 -10 51 -5 0 -9 5 -9 11 0 6 7 8 18 4 12
-4 11 -1 -5 15 -27 24 -29 35 -8 26 20 -7 19 7 -5 49 -11 20 -20 40 -20 46 0
6 -7 17 -16 26 -8 9 -13 22 -10 29 3 8 2 14 -3 14 -14 0 -30 47 -20 57 15 15
-68 73 -103 73 -15 0 -28 5 -28 11 0 6 9 8 20 4 14 -5 20 -2 20 9 0 9 -4 16
-10 16 -5 0 -10 7 -10 15 0 21 -30 31 -40 15 -4 -7 -24 -19 -44 -25 l-37 -13
15 23 c11 17 12 25 3 34 -8 8 -7 11 5 11 9 0 18 -6 21 -12 2 -7 7 -10 11 -6 4
3 1 17 -8 30 -13 19 -26 25 -63 27 -29 1 -56 9 -68 20 -21 19 -149 55 -139 40
3 -5 0 -9 -6 -9 -6 0 -13 7 -16 15 -6 16 -54 21 -54 6 0 -4 -19 -8 -42 -8 -24
0 -35 2 -25 5 19 4 23 22 5 22 -7 0 -23 3 -34 6 -12 3 -25 1 -29 -6z m-45 -40
c-19 -13 -30 -13 -30 0 0 6 10 10 23 10 18 0 19 -2 7 -10z m363 -34 c21 -16
16 -21 -30 -31 -32 -6 -46 6 -23 20 6 4 8 11 5 16 -9 14 28 10 48 -5z m97 -86
c0 -5 -2 -10 -4 -10 -3 0 -8 5 -11 10 -3 6 -1 10 4 10 6 0 11 -4 11 -10z m297
-346 c-3 -3 -13 8 -21 25 -23 43 -19 52 5 13 12 -18 19 -35 16 -38z m-1317
-2064 c0 -5 -4 -10 -10 -10 -5 0 -10 5 -10 10 0 6 5 10 10 10 6 0 10 -4 10
-10z m970 -184 c0 -9 -30 -14 -35 -6 -4 6 3 10 14 10 12 0 21 -2 21 -4z"/>
<path d="M4422 6484 c-83 -42 -91 -49 -107 -90 -9 -24 -24 -48 -32 -53 -12 -6
-14 -17 -9 -45 6 -33 10 -36 42 -36 32 0 34 -2 24 -20 -9 -16 -7 -22 7 -28 22
-9 29 -32 12 -43 -6 -4 8 -5 32 -2 41 4 45 2 65 -29 22 -34 95 -68 103 -47 1
6 11 3 22 -7 11 -10 28 -15 44 -12 31 6 32 1 3 -13 -22 -9 -22 -9 2 -4 14 2
45 5 70 5 25 0 52 5 60 10 27 18 -9 30 -81 29 -57 -2 -109 11 -109 27 0 3 21
4 46 3 38 -2 49 1 65 22 13 15 18 36 16 57 -3 37 -5 36 32 17 35 -18 42 -33
34 -79 -5 -33 -4 -36 20 -36 20 0 24 4 20 20 -3 11 0 20 6 20 6 0 11 -9 11
-20 0 -12 7 -20 16 -20 13 0 15 7 10 34 -6 32 -5 34 16 28 27 -7 47 -30 48
-54 0 -19 20 -25 20 -7 0 8 5 8 15 -1 8 -7 15 -22 15 -34 0 -17 2 -18 10 -6
13 19 13 66 0 90 -7 13 -6 21 4 29 8 7 20 34 26 61 10 41 9 54 -5 84 -10 20
-24 36 -31 36 -8 0 -22 9 -31 20 -10 11 -23 20 -30 20 -7 0 -28 11 -47 23 -22
16 -56 26 -96 30 -33 4 -70 12 -82 18 -13 7 -43 9 -79 5 -46 -6 -58 -4 -54 6
3 7 -3 18 -14 25 -15 10 -33 4 -109 -33z m324 -195 c19 -11 34 -24 34 -28 0
-18 -15 -18 -55 -1 -23 10 -68 21 -99 25 -54 7 -70 17 -43 29 26 12 129 -4
163 -25z m-226 -9 c0 -5 -5 -10 -11 -10 -5 0 -7 5 -4 10 3 6 8 10 11 10 2 0 4
-4 4 -10z m30 -96 c0 -13 -4 -24 -9 -24 -13 0 -24 37 -16 50 10 16 25 1 25
-26z m160 -104 c0 -5 -4 -10 -10 -10 -5 0 -10 5 -10 10 0 6 5 10 10 10 6 0 10
-4 10 -10z"/>
<path d="M5339 6354 c-8 -10 -23 -12 -50 -8 -36 6 -43 3 -73 -28 -39 -40 -54
-82 -58 -163 -3 -59 -3 -60 24 -60 24 1 26 -2 21 -26 -4 -21 0 -30 16 -39 22
-11 41 -6 41 11 0 5 -7 9 -15 9 -12 0 -12 3 2 20 26 30 48 25 50 -12 3 -32 43
-77 71 -78 7 0 11 -4 7 -9 -3 -6 -17 -6 -36 1 -48 16 -58 -5 -15 -30 29 -17
36 -18 36 -7 0 11 12 15 40 15 23 0 40 5 40 11 0 6 -7 8 -16 5 -31 -12 -34 6
-4 35 32 32 38 54 18 62 -10 4 -10 7 0 18 10 11 17 9 37 -13 32 -35 32 -63 -1
-85 l-26 -17 22 -8 c14 -5 28 -4 36 3 7 6 28 9 46 7 32 -3 33 -2 36 37 5 65
-27 102 -138 157 l-95 48 55 0 c83 0 130 -26 160 -88 14 -29 29 -52 34 -52 5
0 22 15 37 33 24 27 30 30 39 17 21 -32 17 108 -5 151 -17 31 -68 75 -73 61
-2 -8 -17 -7 -174 21 -65 12 -80 12 -89 1z m106 -208 c28 -13 59 -31 70 -41
11 -9 16 -14 10 -12 -86 39 -111 47 -149 47 -34 0 -46 4 -46 15 0 23 57 19
115 -9z"/>
<path d="M3700 5973 c0 -10 5 -25 10 -33 7 -11 10 -7 10 18 0 17 -4 32 -10 32
-5 0 -10 -8 -10 -17z"/>
<path d="M5260 5980 c0 -5 5 -10 10 -10 6 0 10 5 10 10 0 6 -4 10 -10 10 -5 0
-10 -4 -10 -10z"/>
<path d="M3730 5868 c0 -9 4 -19 9 -23 5 -3 12 -19 16 -35 4 -18 13 -30 22
-30 14 0 14 2 0 18 -10 10 -17 25 -17 33 0 8 -7 23 -15 33 -13 17 -15 17 -15
4z"/>
<path d="M4770 5617 c0 -74 20 -89 162 -121 15 -3 38 -18 51 -31 21 -23 26
-24 55 -14 18 6 32 14 32 19 0 4 25 7 56 7 69 0 80 10 64 58 -13 40 -46 59
-86 49 -13 -3 -30 -2 -37 4 -6 5 -32 15 -56 22 -24 6 -51 19 -59 27 -13 12
-30 14 -83 9 -54 -5 -68 -3 -73 9 -12 33 -26 12 -26 -38z"/>
<path d="M4797 5305 c-57 -21 -114 -26 -126 -11 -9 10 -51 14 -93 7 -15 -2
-38 -34 -38 -52 0 -16 7 -19 48 -19 26 0 60 -7 76 -15 15 -8 35 -15 43 -15 8
0 12 -4 9 -8 -2 -4 -1 -14 4 -22 7 -12 11 -12 25 0 10 8 21 24 26 37 7 19 16
23 52 23 25 0 64 -7 88 -16 24 -9 69 -16 99 -15 71 2 156 -22 180 -49 11 -13
26 -20 34 -17 8 3 28 2 44 -2 41 -12 58 0 41 30 -20 38 -38 52 -60 46 -14 -4
-38 6 -70 29 -33 23 -60 34 -83 34 -19 0 -37 4 -40 8 -3 5 -18 7 -34 4 -17 -2
-46 5 -70 17 -47 24 -100 26 -155 6z"/>
<path d="M4140 5266 c0 -2 7 -9 15 -16 13 -11 14 -10 9 4 -5 14 -24 23 -24 12z"/>
<path d="M4454 5079 c1 -18 10 -35 24 -45 31 -21 33 -16 14 28 -21 48 -40 56
-38 17z"/>
<path d="M4805 5100 c-9 -14 17 -49 32 -43 7 3 19 1 26 -5 6 -5 44 -17 83 -26
65 -14 74 -14 103 0 38 19 39 32 4 40 -16 3 -37 9 -48 14 -17 7 -157 30 -185
30 -5 0 -11 -4 -15 -10z"/>
<path d="M4785 5051 c-3 -5 -1 -12 5 -16 5 -3 10 1 10 9 0 18 -6 21 -15 7z"/>
<path d="M3970 4939 c0 -20 -9 -42 -21 -55 -19 -20 -20 -27 -11 -51 7 -15 11
-47 11 -71 -1 -40 5 -61 15 -51 8 8 9 84 2 119 -7 35 13 97 27 83 4 -3 7 -1 7
5 0 7 -5 12 -11 12 -6 0 -9 7 -6 15 4 8 2 17 -3 20 -6 4 -10 -8 -10 -26z"/>
<path d="M3857 4843 c-10 -9 -9 -23 2 -23 5 0 11 7 15 15 5 15 -5 20 -17 8z"/>
<path d="M3727 4783 c-4 -3 0 -14 9 -24 15 -17 17 -16 35 2 10 10 19 21 19 24
0 8 -56 6 -63 -2z"/>
<path d="M3910 4692 c0 -17 21 -25 31 -13 5 6 6 9 3 6 -4 -3 -13 0 -21 6 -9 8
-13 8 -13 1z"/>
<path d="M3886 4644 c-3 -8 -10 -12 -16 -9 -5 3 -10 3 -9 -2 0 -12 79 -73 93
-73 6 1 -1 11 -16 23 -26 21 -40 45 -18 32 13 -8 13 1 0 26 -13 23 -26 24 -34
3z"/>
<path d="M4900 4360 c-12 -8 -11 -10 8 -10 12 0 22 5 22 10 0 13 -11 13 -30 0z"/>
<path d="M5216 4351 c-4 -7 -5 -15 -2 -18 9 -9 19 4 14 18 -4 11 -6 11 -12 0z"/>
<path d="M2644 4027 c9 -15 31 -51 47 -80 41 -70 81 -128 86 -124 7 8 -98 184
-124 208 l-27 24 18 -28z"/>
<path d="M2826 3717 c3 -10 9 -15 12 -12 3 3 0 11 -7 18 -10 9 -11 8 -5 -6z"/>
<path d="M6102 3680 c0 -19 2 -27 5 -17 2 9 2 25 0 35 -3 9 -5 1 -5 -18z"/>
<path d="M2866 3645 c9 -14 18 -25 20 -25 2 0 -2 11 -8 25 -6 14 -15 25 -20
25 -5 0 -1 -11 8 -25z"/>
<path d="M2951 3499 c60 -118 98 -179 110 -179 10 0 -42 98 -78 147 -13 18
-32 52 -42 76 -11 25 -25 48 -31 52 -7 4 12 -39 41 -96z"/>
<path d="M3100 3520 c0 -8 5 -22 10 -30 9 -13 10 -13 10 0 0 8 -5 22 -10 30
-9 13 -10 13 -10 0z"/>
<path d="M6316 3366 c-9 -14 -16 -28 -16 -32 0 -4 -11 -22 -26 -41 -14 -18
-21 -33 -15 -33 11 0 40 40 65 88 21 41 15 53 -8 18z"/>
<path d="M3273 3360 c4 -14 7 -35 7 -47 0 -13 4 -23 9 -23 10 0 -3 77 -14 88
-4 4 -5 -4 -2 -18z"/>
<path d="M3250 3271 c0 -22 23 -91 31 -91 4 0 4 15 -1 33 -8 39 -29 79 -30 58z"/>
<path d="M3220 3134 c0 -15 41 -118 51 -128 15 -16 10 28 -6 50 -8 10 -15 26
-15 34 -1 16 -30 60 -30 44z"/>
<path d="M5492 2852 l-114 -3 7 -38 c11 -64 33 -116 47 -112 7 3 54 6 103 8
50 3 109 5 133 6 38 2 42 5 42 27 0 18 -3 21 -9 12 -16 -26 -54 -10 -65 28
l-10 35 -4 -36 c-3 -34 -5 -36 -38 -35 -19 1 -38 7 -43 14 -7 11 -9 11 -14 -2
-9 -23 -102 -23 -111 0 -10 27 -7 52 9 58 11 4 15 -1 15 -19 0 -13 5 -27 10
-30 6 -4 10 7 10 24 0 30 2 31 40 29 23 -1 43 -5 46 -10 3 -5 12 -4 20 3 8 6
31 12 53 13 29 0 37 4 34 16 -2 8 -14 15 -26 15 -12 0 -73 -1 -135 -3z"/>
<path d="M3330 2833 c0 -4 5 -15 10 -23 8 -13 10 -13 10 2 0 9 -4 20 -10 23
-5 3 -10 3 -10 -2z"/>
<path d="M5697 2803 c-7 -11 10 -40 18 -31 4 4 3 14 -3 24 -5 9 -12 12 -15 7z"/>
<path d="M3352 2760 c0 -19 2 -27 5 -17 2 9 2 25 0 35 -3 9 -5 1 -5 -18z"/>
<path d="M6032 2655 c0 -16 2 -22 5 -12 2 9 2 23 0 30 -3 6 -5 -1 -5 -18z"/>
<path d="M6015 2439 c-5 -33 -3 -55 4 -62 6 -6 11 -9 11 -6 10 115 -2 165 -15
68z"/>
<path d="M6386 2459 c-17 -17 -18 -19 -3 -19 9 0 17 4 17 8 0 5 10 14 23 20
20 10 20 11 2 11 -11 0 -29 -9 -39 -20z"/>
<path d="M6660 2470 c0 -5 4 -10 9 -10 6 0 13 5 16 10 3 6 -1 10 -9 10 -9 0
-16 -4 -16 -10z"/>
<path d="M6655 2430 c-3 -5 -1 -10 4 -10 6 0 11 5 11 10 0 6 -2 10 -4 10 -3 0
-8 -4 -11 -10z"/>
<path d="M6692 2429 c2 -7 10 -15 17 -17 8 -3 12 1 9 9 -2 7 -10 15 -17 17 -8
3 -12 -1 -9 -9z"/>
<path d="M6606 2401 c-10 -11 -30 -22 -44 -26 -37 -9 -295 -276 -325 -335 -38
-77 -59 -94 -104 -85 -34 7 -36 8 -16 16 20 7 22 14 18 53 -2 25 0 48 5 51 6
3 10 14 10 24 0 23 36 56 45 42 10 -17 85 -14 86 4 2 23 4 29 10 40 11 18 -9
55 -30 55 -29 0 -35 17 -12 37 11 9 17 21 14 26 -3 5 0 13 7 17 7 4 11 13 8
20 -7 23 -101 -82 -144 -161 -15 -27 -35 -56 -45 -65 -17 -15 -18 -14 -28 23
-30 115 -29 113 -30 54 -1 -30 4 -69 11 -87 10 -28 9 -36 -5 -52 -9 -10 -17
-24 -17 -30 0 -6 -12 -20 -27 -29 -31 -20 -72 -63 -73 -77 0 -4 -11 -22 -25
-40 -14 -17 -29 -36 -34 -42 -5 -6 -12 -21 -16 -35 -4 -13 -17 -37 -28 -53
-16 -23 -17 -30 -6 -37 8 -4 24 -6 37 -2 13 3 42 0 64 -8 31 -10 44 -10 59 -1
10 7 23 12 28 12 5 0 22 5 38 11 l28 11 -25 10 c-20 7 -22 11 -10 18 20 13 33
13 25 0 -3 -5 1 -10 9 -10 9 0 16 -4 16 -10 0 -13 110 -13 130 0 13 8 13 10
-2 10 -15 0 -16 4 -6 28 15 34 57 74 71 65 6 -4 3 -10 -9 -15 -15 -7 -14 -7 6
-3 14 2 33 5 43 5 14 0 17 5 12 20 -4 13 -2 20 7 20 7 1 1 8 -14 16 -30 16
-38 44 -13 44 8 0 15 8 15 18 0 10 5 23 12 30 7 7 8 12 4 12 -5 0 3 11 18 25
22 20 24 26 12 31 -23 9 -8 32 17 27 15 -3 18 -2 9 5 -10 7 -10 11 3 22 8 7
18 10 22 6 3 -3 0 -7 -8 -7 -8 -1 2 -5 21 -9 19 -4 44 -11 54 -15 14 -6 17 -5
12 3 -4 8 3 16 18 22 14 5 26 12 26 15 0 15 -32 65 -41 65 -5 0 -13 10 -18 23
-10 28 23 101 53 115 28 13 106 81 106 93 0 15 -16 10 -34 -10z m-423 -488
c-7 -2 -13 -11 -13 -18 0 -8 -5 -17 -12 -21 -7 -4 -8 -3 -4 5 4 6 0 14 -11 17
-56 18 -56 23 -3 23 30 -1 49 -3 43 -6z m-83 -113 c0 -5 -4 -10 -10 -10 -5 0
-10 5 -10 10 0 6 5 10 10 10 6 0 10 -4 10 -10z"/>
<path d="M6917 2403 c-4 -3 -7 -11 -7 -17 0 -6 5 -5 12 2 6 6 9 14 7 17 -3 3
-9 2 -12 -2z"/>
<path d="M6780 2290 c-163 -174 -278 -290 -288 -290 -5 0 -21 -27 -36 -60 -15
-33 -33 -60 -40 -60 -17 0 -27 -25 -20 -44 7 -18 -42 -30 -108 -27 -45 2 -48
0 -48 -23 0 -23 4 -24 63 -28 40 -3 79 1 110 11 43 14 63 31 36 31 -8 0 -9 4
0 13 6 8 10 16 8 18 -1 2 4 -2 11 -10 10 -13 12 -12 12 6 0 22 31 40 50 28 7
-4 8 3 4 22 -4 15 -11 30 -16 32 -5 2 3 10 18 17 26 14 29 13 61 -19 l32 -34
-22 -20 c-12 -11 -33 -27 -47 -36 l-24 -17 26 0 c27 0 100 27 152 56 33 19 79
68 98 104 7 14 19 31 26 38 6 7 12 16 12 20 0 15 89 102 104 102 9 0 20 10 25
23 5 13 20 36 33 53 14 16 28 37 31 47 6 16 4 16 -23 -3 -17 -12 -35 -31 -42
-43 -6 -12 -27 -35 -46 -52 -34 -29 -111 -127 -113 -142 -1 -4 -24 -28 -52
-53 -28 -25 -48 -40 -44 -35 3 6 2 17 -4 25 -7 13 -9 12 -9 -2 0 -10 -3 -18
-6 -18 -12 0 -64 34 -64 42 0 10 3 10 34 -2 30 -11 35 3 8 22 -26 18 -35 73
-16 93 8 8 12 20 9 26 -4 5 2 20 14 32 51 53 71 79 71 88 0 6 5 7 10 4 6 -3
10 -2 10 3 0 5 23 38 50 72 55 69 56 70 37 70 -6 0 -46 -36 -87 -80z m-160
-260 c0 -5 -4 -10 -10 -10 -5 0 -10 5 -10 10 0 6 5 10 10 10 6 0 10 -4 10 -10z
m16 -117 c-6 -6 -36 9 -36 18 0 5 9 4 20 -3 10 -7 18 -14 16 -15z m-268 -130
c-10 -2 -26 -2 -35 0 -10 3 -2 5 17 5 19 0 27 -2 18 -5z"/>
<path d="M7062 2041 c-7 -19 -10 -36 -8 -38 8 -8 27 38 24 55 -3 11 -8 5 -16
-17z"/>
<path d="M6957 2010 c-3 -11 -1 -20 4 -20 5 0 9 9 9 20 0 11 -2 20 -4 20 -2 0
-6 -9 -9 -20z"/>
<path d="M6820 1929 c0 -12 38 -49 51 -49 18 0 14 26 -7 42 -25 21 -44 23 -44
7z"/>
<path d="M6901 1884 c-6 -15 -9 -29 -6 -32 7 -7 34 29 35 46 0 21 -16 13 -29
-14z"/>
<path d="M7118 1845 c46 -7 89 -16 97 -19 8 -3 15 -3 15 0 0 15 -77 34 -132
33 l-63 -1 83 -13z"/>
<path d="M4490 1715 c0 -8 11 -25 25 -39 14 -14 25 -32 25 -41 0 -8 4 -15 8
-15 5 0 14 -10 20 -22 10 -22 11 -21 11 10 1 37 -11 66 -42 100 -23 25 -47 29
-47 7z"/>
<path d="M3760 1700 c0 -20 9 -24 44 -20 12 1 16 -3 11 -10 -6 -9 -2 -9 13 -1
15 8 54 7 144 -2 118 -13 330 -9 345 6 15 15 -12 22 -75 18 -117 -7 -174 -5
-281 12 -58 9 -126 17 -153 17 -41 0 -48 -3 -48 -20z"/>
<path d="M4584 1518 c4 -24 13 -87 21 -142 7 -54 17 -101 21 -105 12 -11 -4
175 -21 232 -19 67 -30 75 -21 15z"/>
<path d="M4582 1084 c-6 -16 -11 -23 -11 -16 -1 9 -9 7 -28 -7 -28 -19 -103
-31 -210 -34 -29 -1 -53 -4 -53 -7 1 -9 51 -42 57 -36 3 3 20 -2 37 -11 17 -9
49 -19 71 -22 30 -5 43 -12 52 -32 7 -15 25 -34 39 -44 15 -9 23 -11 19 -4 -5
8 -4 10 3 5 7 -4 12 -14 12 -22 0 -8 10 -14 24 -14 14 0 31 -7 40 -15 8 -8 29
-18 45 -21 24 -5 31 -12 31 -29 0 -13 -6 -25 -12 -28 -7 -2 -10 -7 -6 -11 3
-4 15 -2 26 5 16 10 27 9 63 -6 24 -10 60 -21 79 -25 19 -4 43 -11 53 -15 12
-5 17 -2 17 9 0 29 41 17 84 -25 22 -23 57 -52 76 -65 34 -22 177 -74 204 -74
7 0 19 -7 26 -15 8 -9 20 -13 29 -10 27 11 81 13 81 4 0 -5 -11 -19 -25 -31
-14 -12 -25 -30 -25 -40 0 -10 -4 -18 -10 -18 -5 0 -10 -7 -10 -15 0 -8 6 -15
13 -15 6 0 22 -3 34 -6 19 -5 26 1 47 50 17 39 30 56 43 56 22 -1 83 -28 65
-29 -7 -1 -10 -5 -7 -11 4 -6 15 -4 30 6 30 20 85 10 86 -14 0 -11 2 -12 6 -4
7 17 24 15 39 -5 12 -17 13 -16 14 5 0 24 15 29 27 9 15 -25 55 -28 75 -5 19
22 26 84 8 73 -5 -3 -8 0 -5 7 7 19 -63 48 -116 48 -28 0 -39 3 -30 9 9 6 10
11 2 15 -6 4 -14 0 -17 -8 -8 -20 -34 -21 -34 -2 0 15 -144 56 -220 62 -78 7
-111 15 -105 25 8 11 -8 12 -20 0 -26 -23 -89 -20 -84 5 4 22 -2 33 -16 28
-12 -5 -13 -10 -5 -19 9 -11 4 -11 -27 -2 -21 6 -45 16 -53 23 -8 6 -24 14
-35 16 -11 2 -21 13 -23 25 -2 15 -8 19 -23 16 -15 -4 -19 0 -19 21 0 14 -4
26 -10 26 -5 0 -7 6 -4 14 3 9 -6 15 -27 20 -18 3 -34 4 -37 1 -3 -3 2 -5 10
-5 9 0 18 -6 21 -14 4 -10 -10 -9 -64 7 -37 11 -67 23 -64 26 2 4 -12 5 -32 3
-19 -3 -45 1 -56 7 -12 6 -58 18 -101 26 -94 17 -111 29 -78 54 17 12 25 32
31 74 9 65 -1 94 -17 51z m708 -434 c0 -5 -2 -10 -4 -10 -3 0 -8 5 -11 10 -3
6 -1 10 4 10 6 0 11 -4 11 -10z"/>
<path d="M4688 973 c6 -2 18 -2 25 0 6 3 1 5 -13 5 -14 0 -19 -2 -12 -5z"/>
<path d="M4681 946 c9 -10 89 -15 84 -5 -4 5 -25 9 -47 9 -23 0 -39 -2 -37 -4z"/>
<path d="M4818 933 c6 -2 18 -2 25 0 6 3 1 5 -13 5 -14 0 -19 -2 -12 -5z"/>
<path d="M4728 903 c7 -3 16 -2 19 1 4 3 -2 6 -13 5 -11 0 -14 -3 -6 -6z"/>
<path d="M4783 903 c9 -2 25 -2 35 0 9 3 1 5 -18 5 -19 0 -27 -2 -17 -5z"/>
<path d="M4778 883 c7 -3 16 -2 19 1 4 3 -2 6 -13 5 -11 0 -14 -3 -6 -6z"/>
<path d="M5230 700 c0 -5 7 -10 16 -10 8 0 12 5 9 10 -3 6 -10 10 -16 10 -5 0
-9 -4 -9 -10z"/>
<path d="M4931 638 c-1 -21 -5 -38 -11 -38 -5 0 -10 -9 -10 -21 0 -11 5 -17
10 -14 6 4 10 -10 10 -34 0 -28 -6 -46 -21 -60 -11 -10 -16 -22 -11 -25 34
-21 66 118 44 194 l-10 35 -1 -37z"/>
<path d="M5860 526 c0 -19 23 -22 120 -15 l85 6 -65 3 c-36 2 -71 3 -77 3 -7
-1 -13 3 -13 8 0 5 -11 9 -25 9 -15 0 -25 -6 -25 -14z"/>
<path d="M6120 499 c0 -11 111 -20 128 -10 11 6 -5 10 -56 13 -40 1 -72 0 -72
-3z"/>
<path d="M5505 470 c3 -5 8 -10 11 -10 2 0 4 5 4 10 0 6 -5 10 -11 10 -5 0 -7
-4 -4 -10z"/>
<path d="M5593 455 c-3 -9 -3 -19 1 -22 3 -4 6 -1 6 5 0 7 6 12 14 12 8 0 18
5 21 10 3 6 -3 10 -15 10 -11 0 -23 -7 -27 -15z"/>
</g>
</svg>
